<?xml version="1.0" encoding="UTF-8"?>
<svg id="Layer_1" data-name="Layer 1" xmlns="http://www.w3.org/2000/svg" viewBox="0 0 1080 1074.5">
  <path d="M239.08,310.53c-1.83,19.27-1.27,39.22,3.41,58.05l-19.88,36.81c2.56,15.23,11.6,16.13,24.52,18.46,22.32,4.04,44.91,6.73,67.09,11.69,7.76,3.57,12.21,12.21,18.92,16.76,26.62,1.23,53.4,1.8,79.98.21.41-1.59-.66-1.83-1.36-2.75-3.93-5.12-10.95-10.58-15.59-15.55-29.58-31.72-52.38-66.32-73.77-103.94-4.8-35.82.33-74.06,5.69-109.81,6.41-42.77,16.43-87.56,31.22-128.17,2.88-7.89,7.58-21.05,11.21-28.18,2.71-5.3,18.92-12.78,24.87-15.44,26.96-12.03,57-17.79,86.43-18.99l16.49,12.44c-19.89.94-43.44.26-62,8.09-3.4,1.43-8.31,3.55-10.37,6.57l78.27-9.18c8.39,5.15,14.85,13.09,21.57,20.17-16.03-.63-33.01-1.79-49.05-.95-11.71.61-25.93,2.71-35.22,10.11,29.06-2.86,58.37-2.13,87.47-4.58l1.89.86,18.73,20.68c1.18,2.86-7.6.45-8.66.41-23.86-.94-60.73-3.03-82.01,7.84-1.06.54-2.54.85-2.76,2.26,33.33-.57,66.92,1.22,100.11-.95l15.28,23.43c.26,1.85-.07,1.18-1.34,1.35-13.25,1.75-31.77-.52-45.86-.04-17.69.6-69.09,3.67-83.14,11.21-10.79,5.79-16.99,19.17-18.05,30.96,6.19.59,12.57,1.49,18.82.95,15.8-1.37,23.76-17.63,39.23-20.26l10.66,20.21c-8.65,3.15-16.53,10.36-22.92,16.94-4.3,4.42-10.93,11.71-14.6,16.54-1.96,2.58-5.93,10.45-6.99,11.33-7.14,5.87-33.67,7.82-43.19,10.86-4.38,3.39-6,11.5-4.3,16.67,2.34,7.12,17.87,28.86,22.93,36.61,6.11,9.35,22.34,28.76,25.33,37.88,2.5,7.62-.79,19.16,1.18,27.22,22.81,22.09,45.73,44.43,71.44,63.22,1.5-49.6,7.4-100.12,18.14-148.57,1.21-5.45,2.3-12.56,4.42-17.57,4.68-11.09,45.64-44.36,57.16-53.68,50.03-40.49,103.93-81.36,162.13-109.09,42.03,13.13,81.7,33.24,119.54,55.47,1.12,1.26,1.28,12.53,1.6,15.82.49,5.2-4.95-1.92-6.8-3.28-11.23-8.22-29.96-18.36-43.13-22.83-3.47-1.18-7.51-3.04-11.22-2.53l60.91,39.86-.46,24.72-8.72-9.13c-18.01-12.89-36.37-26-57.22-33.91,1.31,2.03,3.26,3.87,5.06,5.46,19.07,16.87,41.3,31.64,60.46,48.6l-2.32,33.87c-21.26-20.96-38.77-49.01-68.69-58.62-.4,1.72.97,2.17,1.83,3.2,9.93,12.02,27.29,24.76,38.96,36.16,8.82,8.61,17.19,17.61,25.6,26.6.88,9.65-2.47,19.77-4.11,29.3-1.07.95-16.13-10.87-18.22-12.46-15.88-12.12-30.62-25.67-46.52-37.75-11.19-8.5-31.74-24.79-43.39-30.8-11.13-5.75-34.08-1.81-44.88,4.59,2.29,6.49,5.65,14.72,10.54,19.67,8.88,8.99,28.29,5.36,39.74,10.19l1.98,21.84c-19.33-1.77-39.19-1.38-58.05,3.4l-37.74-19.87c-13.12,2.3-15.32,10.33-17.54,21.77-4.51,23.21-6.57,47.01-12.42,70.02-2.63,7.76-15.49,14.65-16.23,18.58-.43,2.27-.82,7.46-.97,10.02-1.1,18.02-1.3,45.34.05,63.23.17,2.25.93,4.67,1.36,6.88,24.43-24.38,50.22-46.71,79.32-65.41,10.8-6.94,30.78-20.38,41.76-25.11,11.03-4.75,53.65-1.49,67.63-.15,68.26,6.52,137.29,22.46,200.44,48.72l1.44,1.31c18.79,31.01,29.88,67.85,31.3,104.29.28,7.15-3.94,12.05-8.32,17.4-1.18,1.44-2.58,4.4-4.54,4.16.02-20.25-.33-41.14-6.89-60.44l-6.85-11.92c2.68,26.4,7.46,52.62,8.21,79.21l-20.12,20.63c2.42-23.18,3.39-47.25-1.83-70.09l-6.42-14.18,3.63,88.37c-.66,3.48-18.37,16.41-21.95,19.72.06-28.03,4.61-58.32-5.06-85.18l-4.1-8.25c-.23,8.08.26,16.22.03,24.31-.61,21.21-1.76,42.79-1,64.13.13,3.68,1.2,7.22,1.65,10.85-.41,2.12-21.01,15.2-24.08,16.11-1.71.51-1.21-.28-1.35-1.34-1.1-8.34.09-22.66-.04-32.04-.36-26.08-.57-67.89-8.46-92.3-4.09-12.67-19.73-21.94-32.63-22.63-2.25,8.43-2.74,18.37.15,26.71,3.12,8.98,17.22,19.25,18.78,30.5l-19.5,11.33c-8.91-14.84-22.46-28.33-36.25-38.76-7.84-5.94-9.09-2.72-12.69-13.88s-5.03-22.79-7.31-33.91c-2.35-5.92-11.87-7.07-17.22-5.17-8.37,2.97-29.56,18.29-38.29,24-8.1,5.28-28.61,22.1-36.12,24.34s-21.66-1.74-27.86,1.45c-1.88.97-6.53,6.22-8.37,8.12-11.98,12.36-25.48,27.21-36.64,40.31-3.09,3.62-15.7,18.43-16.92,21.55-.62,1.59.39,1.23,1.35,1.36,5.5.73,12.59-.35,18.38-.04,40.45,2.16,84.67,8.35,124.26,16.81,16.34,3.49,22.49,3.59,34.66,15.72,26.95,26.88,53.36,62.5,76.39,93.08,27.54,36.58,54.58,73.91,73.7,115.76-14.31,42.08-32.89,83.21-57.14,120.49h-13.74c-.15,0-3.38,2.27-2.28-.44.87-2.15,6.67-8.5,8.61-11.54,5.36-8.39,11.35-18.62,15.35-27.7.68-1.53,8.63-20.65,5.8-20.78l-39.33,60.53c-3.63,2.62-19.29-.05-24.33-.52,9.29-7.8,16.68-18.7,23.28-28.94,7.26-11.26,14.8-23.78,18.85-36.56l-53.13,65.51-33.88-2.3c-.35-1.52.49-1.86,1.39-2.73,4.94-4.79,11.76-9.37,16.94-14.2,15.33-14.27,33.97-31.05,39.37-51.77-11.14,8.6-19.54,20.54-29.28,30.71-11.63,12.15-24.05,23.6-35.76,35.68-9.95,1.1-20.32-2.83-30.21-4.11l14.69-20.57c24.21-29.24,48.31-58.64,68.44-90.95,1.67-8.05,1.44-16.22-.02-24.26-.54-2.93-4.32-17.37-7.36-17.08-2.41.23-12.86,5.95-15.21,7.75-1.97,1.51-7.08,6.53-7.83,8.66-2.09,5.92-2.88,29.87-5.54,32.93-2.5,2-20.69,3.6-21.53,2.76-.85-5.69,1.01-11.53.99-16.97s-.5-14.52-1-20.13c-.46-5.23-4-17.4-3.64-21,.77-7.74,17.12-26.91,19.02-36.02,1.19-5.69-3.76-14.05-8.95-16.28-10.08-4.33-29.79-5.01-41.4-7.15-13.79-2.55-27.38-5.99-41.23-8.23-6.31-3.81-11.77-9.94-16.31-15.75l-1.36-.47c-23.66-.33-49.73-2.54-73.28-.9-2.49.17-5.27,1.08-7.79,1.36,22.14,21.69,42.86,44.99,60.29,70.71,11.36,16.76,20.65,34.78,31.52,51.84,3.37,25.79.82,53.03-2.15,78.87-7.38,64.22-22.23,127.84-47.1,187.4-23.77,16.87-55.48,27.16-84.36,31.06-5.17.7-23.18,2.78-27.13,1.74-3.63-.95-13.26-9.61-16.25-12.59,23.73-.68,52.52,1.22,72.37-13.74-20.02,1.87-39.97,5.64-60,7.31-4.52.38-14.43,1.59-18.27.88-3.05-.57-16.92-14.28-19.29-17.35-.71-.92-1.78-1.16-1.36-2.75,18.01,1.98,37.35,2.94,55.41.91,7.78-.87,16.21-2.69,23.36-5.95,1.25-.57,4.12-1.86,4.58-3.2l-87.46,3.63c-2.68-.51-15.89-15.97-18.34-19.21-.69-.91-1.79-1.15-1.37-2.75,16.89.3,33.89,1.67,50.88.95,13.25-.56,23.87-1.77,36.13-6.93,1.54-.65,4.76-1.74,5.5-3.18-7.77-.23-15.61.26-23.39.03-21.47-.64-43.44-1.88-65.04-1-3.69.15-7.26,1.14-10.87,1.71-2.43-2.86-17.28-23.45-15.19-25.48,8.74-.84,17.56.98,26.15.94,27.94-.13,68.78-1.92,95.71-8.71,16.42-4.14,23.39-17.93,26.54-33.46-5.32-.67-10.63-2.13-16.07-1.87-14.85.7-17.6,7.72-28.54,14.52-4.29,2.66-8.83,4.72-13.51,6.56l-10.51-19.58c8.38-5.67,15.79-11.11,22.85-18.39,5.39-5.56,12.82-14.05,17.22-20.34,1.21-1.72,2.12-5.42,3.16-6.46,5.92-5.94,35.11-8.98,43.97-11.45,10.08-10.53,3.21-18.21-2.62-28.11-12.65-21.5-28.2-41.1-41.04-62.47-3.35-8.67-.17-19.19-1.95-28.27-22.63-21.65-45-43.95-70.52-62.3-2.61,8.39-.89,17.45-1.33,26.14-1.97,38.49-8.54,82.02-16.81,119.68-1.33,6.08-3.32,18.08-6.26,23.05-3.36,5.67-20.57,20.58-26.42,25.79-30.32,27.07-66.07,53.81-99.04,77.75-29.31,21.28-59.69,41.55-92.86,56.34-41.36-13.64-80.45-33.32-118.1-54.95-1-.64-2.38-4.17-2.38-4.95v-14.2c17.36,13.81,38.37,26.93,60.46,31.14l-60.46-39.38v-24.73c19.09,17.65,41.63,32.57,65.95,42.13l-5.07-5.46-59.5-47.67c-.82-11.15.47-23.03,2.73-33.88,20.32,20.8,38.67,49.86,68.25,57.7-21.94-22.47-46.56-42.31-67.37-65.98-.11-3.58,3.56-29.12,5.53-29.25,23.34,16.38,44.29,35.8,67.04,52.94,10.62,7.99,29.17,22.79,40.32,28.39,12,6.03,33.44,2.76,44.18-5-2.4-9.12-7.42-18.36-15.73-23.45l-33.44-5.49c-2.6-6.97-2.04-14.48-2.06-21.77,5.42-.79,10.83.98,16.04.98,5.63,0,14.51-.48,20.14-.98,5.3-.47,18.36-3.98,21.91-3.64,6.44.62,27.11,16.71,35.12,19,6.37,1.82,15.46-4.92,17.39-10.56,3.61-10.52,3.96-25.69,6.03-37.03,2.37-12.99,4.91-31.46,8.57-43.65,2.3-7.66,15.97-14.74,16.77-18.95s-.24-10.94-.02-15.59c.12-2.45.92-4.64,1-7.25.59-19.09-.28-38.26-.97-57.3-18.64,17.31-36.89,35.06-57.41,50.21-21.44,15.84-44.8,28.65-67.66,42.27-89.76,2.6-181.55-16.58-264.49-49.63l-1.48-1.27c-20.77-32.58-30.57-71.54-31.57-110.08l12.23-16.69c1.16,22.08-.24,51.52,12.4,70.54.7,1.06-.23,2.37,2.26,1.82-4.32-25.9-6.79-52.1-9.18-78.26l20.16-20.66c-.62,16.02-1.81,33.02-.95,49.05.55,10.32,2.62,21.94,7.22,31.25.54,1.1,1.66,3.72,2.89,3.97-.13-7.45-1.44-14.98-1.86-22.4-1.15-20.41-1.42-41-1.8-61.4-.03-1.52-1.05-3.16-.92-4.58.26-2.77,19.5-17.77,22.9-20.63-1.25,8.97-.78,17.96-.92,27.01-.33,21.65-1.94,42.05,7.18,62.45.61,1.38,1.52,4.39,2.89,4.88-.48-30.97.65-62.03.05-93.01-.06-3.05-2.39-6.35.39-8.7,3.07-1.75,21.32-15.83,23.38-13.7l-.03,46.29c1.82,22.51,2.5,45.24,6.74,67.46,3.32,17.41,8.72,27.59,26.99,32.55,1.48.4,7.31,2.39,8,1.21,1.37-5.63,1.88-12.14,1.39-17.93-1.08-12.85-7.73-15.89-13.8-25.59-1.94-3.1-8.23-12.55-4.9-15.03,1.12-.84,15.58-8.78,16.58-9.09.68-.21,1.35-.33,2.05-.14,7.5,14.66,22.66,28.83,35.85,38.81,7.96,6.03,8.73,2.52,12.49,14.08,3.51,10.81,5.01,22.9,7.15,34.07,3.3,4.08,11.01,6.65,15.96,5.01,3.6-1.19,14.18-8.51,18.29-11.02,16.52-10.06,39.53-29.94,55.6-36.92,9.16-3.97,20-.63,29.65-2.41,21.42-22.92,43.35-45.48,62.3-70.52-8.39-2.61-17.45-.89-26.14-1.33-37.52-1.9-79.21-8.23-116.01-15.9-11.61-2.42-23.3-3.59-32.37-11.6-13.94-12.32-30.53-33.38-42.55-48.14-36.16-44.43-80.46-100.57-105.84-151.56-1.44-2.89-5.93-11.56-5.96-14.19-.04-3.28,3.54-11.75,4.84-15.37,8.97-25.03,22.35-53.33,35.02-76.74,3.69-6.83,9.98-19.32,14.35-25.04.97-1.27,3.53-3.34,4.91-3.34h14.2c-13.2,18.05-27.14,38.93-30.69,61.38,12.92-20.78,25.69-41.71,40.31-61.38h24.27c-10.53,9.85-19.35,22.55-26.95,34.89-6.21,10.08-12.07,20.82-16.1,31.98l53.13-65.49c11.46-.89,23.64.44,34.8,2.74-21.49,19.87-49.68,39.09-58.61,68.25,1.39,1.7,28.01-29.35,30.2-31.63,11.66-12.15,24.07-23.61,35.78-35.72,2.95-1.34,25.15,3.4,29.29,5.54-16.21,24.02-36.15,45.14-53.49,68.32-6.01,8.04-26.23,34.22-28.74,41.79-3.87,11.66-.44,30.54,5.4,41.35,8.88-.92,23.22-9.56,25.32-18.88,1.76-7.77,1.33-22.25,4.08-28.9.78-1.89,6.76-3.41,8.5-3.41h14.2Z"/>
</svg>