<?xml version="1.0" encoding="UTF-8"?>
<svg id="Layer_1" xmlns="http://www.w3.org/2000/svg" version="1.1" viewBox="0 0 500 500">
  <!-- Generator: Adobe Illustrator 29.8.6, SVG Export Plug-In . SVG Version: 2.1.1 Build 1)  -->
  <path d="M268.58,178.11c10-6.58,16.92-17,26.06-24.56,38.47-31.85,122.15-73.26,172.51-68.56,44.6,4.17,20.57,41.18-1.32,58.97-8.84,7.18-20.8,12.07-29.97,19.33-38.25,30.24-72.85,64.05-109.51,96.09-2.44,7.33,22.11,43.85,26.74,54.72,13.91,32.49,25.69,106.66,14.7,139.9-2.86,8.69-24.45,41.33-32.23,41.97-22.3,1.81-55.74-73.11-64.69-91.46-5.11-10.46-27.49-68.07-34.22-70.03-11.21.64-22.11,8.46-31.44,14.44-48.06,30.76-113.58,97.44-172.13,101.92-35.88,2.75-4.96-57.05,2.63-71.46,23.5-44.57,55.66-84.35,90.37-120.5-17.04-13.46-36.78-26.4-49.12-44.6-30.12-44.3-26.55-76.53-18.95-127.6,3.5-23.62,9.51-32.15,32.31-16.51,51.07,35.01,92.37,121.44,123.05,174.65l-12.26,12.52-5.27-2.33c-32.61-58.52-65.59-125.87-118.95-167.24-3.87,2.82-7,73.15-4.25,82.29,7.11,23.77,31.74,52.2,52.65,65.14,9.85,6.09,21.44,8.95,30.95,15.53.45,6.73-41.48,43.14-49.3,51.97-31.1,35.28-53.22,79.5-65.66,124.67,35.46-4.21,67.17-27.68,95.6-48.14,24.45-17.6,63.6-57.01,86.84-69.24,12.11-6.39,16.59-4.25,23.47,5.98,27.19,40.24,42.2,102.48,71.15,145.24,2.48,3.65,8.42,10.53,11.88,12.82,3.87,2.59,1.2,3.42,5.53,0,29.56-23.39,15.61-102.41,5.34-134.15-6.39-19.74-18.8-40.13-30.24-57.39-5.83-8.76-14.74-8.61-10.98-22.34,1.2-4.44,60.1-52.76,69.16-61,20.2-18.35,35.92-37.53,58.71-54.98,9.29-7.11,48.78-26.29,46.33-38.51-1.17-5.87-21.25-4.51-26.18-4.29-44.87,2.11-132,45.88-158.03,82.96-6.92,9.82-11.81,27.57-17.19,35.09-1.77,2.48-5.23,0-6.21.68-2.56,1.81-.94,8.31-10.15,7.52l-6.47-4.7c-5.27-40.47,5.68-80.59,7.9-120.01.19-3.01,1.77-10.38-2.82-9.67-1.96,17.56-11.92,33.81-16.17,50.92-4.02,16.17-6.47,35.13-8.5,51.79-1.43,11.88,4.78,35.46-17.11,23.24-9.14-5.08-.15-44.79,2.03-54.76,9.51-43.06,32-101.77,46.67-145.13,8.57-25.39,25.42-7.75,26.1,14.97,1.02,34.04-15.31,77.92-19.03,112.67-1.13,10.3.15,20.87-.26,31.21l-.08-.08Z"/>
</svg>